<svg width="13" height="17" viewBox="0 0 13 17" fill="none" xmlns="http://www.w3.org/2000/svg">
<path d="M6.5 16.5C6.5 16.5 12.5 10.814 12.5 6.5C12.5 4.9087 11.8679 3.38258 10.7426 2.25736C9.61742 1.13214 8.0913 0.5 6.5 0.5C4.9087 0.5 3.38258 1.13214 2.25736 2.25736C1.13214 3.38258 0.5 4.9087 0.5 6.5C0.5 10.814 6.5 16.5 6.5 16.5ZM6.5 9.5C5.70435 9.5 4.94129 9.18393 4.37868 8.62132C3.81607 8.05871 3.5 7.29565 3.5 6.5C3.5 5.70435 3.81607 4.94129 4.37868 4.37868C4.94129 3.81607 5.70435 3.5 6.5 3.5C7.29565 3.5 8.05871 3.81607 8.62132 4.37868C9.18393 4.94129 9.5 5.70435 9.5 6.5C9.5 7.29565 9.18393 8.05871 8.62132 8.62132C8.05871 9.18393 7.29565 9.5 6.5 9.5Z" fill="#333333"/>
</svg>
