<svg width="16" height="16" viewBox="0 0 16 16" fill="none" xmlns="http://www.w3.org/2000/svg">
<path d="M4.68594 2.06L3.61344 0.9875C1.81344 2.36 0.628438 4.475 0.523438 6.875H2.02344C2.13594 4.8875 3.15594 3.1475 4.68594 2.06ZM13.9784 6.875H15.4784C15.3659 4.475 14.1809 2.36 12.3884 0.9875L11.3234 2.06C12.8384 3.1475 13.8659 4.8875 13.9784 6.875ZM12.5009 7.25C12.5009 4.9475 11.2709 3.02 9.12594 2.51V2C9.12594 1.3775 8.62344 0.875 8.00094 0.875C7.37844 0.875 6.87594 1.3775 6.87594 2V2.51C4.72344 3.02 3.50094 4.94 3.50094 7.25V11L2.00094 12.5V13.25H14.0009V12.5L12.5009 11V7.25ZM8.00094 15.5C8.10594 15.5 8.20344 15.4925 8.30094 15.47C8.78844 15.365 9.18594 15.035 9.38094 14.585C9.45594 14.405 9.49344 14.21 9.49344 14H6.49344C6.50094 14.825 7.16844 15.5 8.00094 15.5Z" fill="#EB5757"/>
</svg>
