<svg width="25" height="17" viewBox="0 0 25 17" fill="none" xmlns="http://www.w3.org/2000/svg">
<path d="M23.1667 7.16667H1.83333C1.03333 7.16667 0.5 7.7 0.5 8.5C0.5 9.3 1.03333 9.83333 1.83333 9.83333H23.1667C23.9667 9.83333 24.5 9.3 24.5 8.5C24.5 7.7 23.9667 7.16667 23.1667 7.16667ZM1.83333 3.16667H23.1667C23.9667 3.16667 24.5 2.63333 24.5 1.83333C24.5 1.03333 23.9667 0.5 23.1667 0.5H1.83333C1.03333 0.5 0.5 1.03333 0.5 1.83333C0.5 2.63333 1.03333 3.16667 1.83333 3.16667ZM23.1667 13.8333H1.83333C1.03333 13.8333 0.5 14.3667 0.5 15.1667C0.5 15.9667 1.03333 16.5 1.83333 16.5H23.1667C23.9667 16.5 24.5 15.9667 24.5 15.1667C24.5 14.3667 23.9667 13.8333 23.1667 13.8333Z" fill="#333333"/>
</svg>
