<svg width="125" height="25" viewBox="0 0 125 25" fill="none" xmlns="http://www.w3.org/2000/svg">
<path d="M31.2357 0.78647L25.0694 18.0385H19.1906L15.9317 8.64854L12.5451 18.0385H6.6663L0.5 0.78647H6.25096L9.79738 11.2268L13.4716 0.78647H18.6475L22.2258 11.3223L25.9001 0.78647H31.2357Z" fill="#00B956"/>
<path d="M50.3227 9.4443C50.3227 9.48674 50.2907 9.98541 50.2268 10.9403H37.6386C37.8942 11.8316 38.3841 12.5212 39.1083 13.0093C39.8538 13.4761 40.7803 13.7095 41.8879 13.7095C42.7186 13.7095 43.4322 13.5928 44.0285 13.3594C44.6462 13.126 45.2639 12.744 45.8816 12.2135L49.0766 15.5239C47.3939 17.3912 44.9338 18.3249 41.6962 18.3249C39.6727 18.3249 37.8942 17.943 36.3606 17.179C34.827 16.4151 33.6342 15.3541 32.7822 13.996C31.9515 12.6379 31.5362 11.0995 31.5362 9.38064C31.5362 7.68302 31.9409 6.16578 32.7503 4.82891C33.581 3.47082 34.7205 2.40981 36.1689 1.64589C37.6173 0.881962 39.2467 0.5 41.0572 0.5C42.7825 0.5 44.348 0.860743 45.7538 1.58223C47.1596 2.28249 48.2672 3.31167 49.0766 4.66976C49.9073 6.00663 50.3227 7.59814 50.3227 9.4443ZM41.0892 4.79708C40.152 4.79708 39.3639 5.06233 38.7249 5.59284C38.1072 6.12334 37.7131 6.84483 37.5427 7.75729H44.6356C44.4652 6.84483 44.0605 6.12334 43.4215 5.59284C42.8038 5.06233 42.0264 4.79708 41.0892 4.79708Z" fill="#00B956"/>
<path d="M75.678 0.5C77.808 0.5 79.5014 1.1366 80.758 2.40981C82.036 3.68302 82.675 5.60345 82.675 8.17109V18.0385H76.6046V9.15782C76.6046 7.94828 76.3703 7.05703 75.9017 6.48408C75.4544 5.91114 74.8154 5.62467 73.9847 5.62467C73.0688 5.62467 72.334 5.94297 71.7802 6.57958C71.2264 7.21618 70.9495 8.1817 70.9495 9.47613V18.0385H64.879V9.15782C64.879 6.80239 64.0057 5.62467 62.2591 5.62467C61.3219 5.62467 60.5764 5.94297 60.0226 6.57958C59.4688 7.21618 59.192 8.1817 59.192 9.47613V18.0385H53.1215V0.78647H58.9044V2.6008C59.5434 1.90053 60.2995 1.38064 61.1728 1.04111C62.0674 0.680371 63.0366 0.5 64.0803 0.5C65.2944 0.5 66.3807 0.722811 67.3391 1.16843C68.2976 1.61406 69.0751 2.2931 69.6715 3.20557C70.3531 2.33554 71.2157 1.66711 72.2594 1.20026C73.3031 0.733421 74.4426 0.5 75.678 0.5Z" fill="#00B956"/>
<path d="M93.8869 0.5C96.7624 0.5 98.9562 1.15782 100.469 2.47347C101.981 3.7679 102.737 5.7626 102.737 8.45756V18.0385H97.0819V15.8103C96.2086 17.4867 94.5046 18.3249 91.9699 18.3249C90.628 18.3249 89.4672 18.0915 88.4874 17.6247C87.5076 17.1578 86.7621 16.5318 86.2509 15.7467C85.761 14.9403 85.5161 14.0279 85.5161 13.0093C85.5161 11.3753 86.1444 10.1127 87.4011 9.22149C88.6578 8.30902 90.5961 7.85278 93.2159 7.85278H96.6665C96.56 6.02785 95.3353 5.11538 92.9923 5.11538C92.1616 5.11538 91.3203 5.25331 90.4683 5.52918C89.6163 5.78382 88.8921 6.14456 88.2957 6.6114L86.2509 2.5053C87.2094 1.8687 88.3702 1.38064 89.7334 1.04111C91.1179 0.680371 92.5024 0.5 93.8869 0.5ZM93.6632 14.5053C94.3661 14.5053 94.9838 14.3355 95.5163 13.996C96.0488 13.6565 96.4322 13.1578 96.6665 12.5V11.004H94.0466C92.2788 11.004 91.3948 11.5875 91.3948 12.7546C91.3948 13.2851 91.5972 13.7095 92.0019 14.0279C92.4066 14.3462 92.9604 14.5053 93.6632 14.5053Z" fill="#00B956"/>
<path d="M124.5 0.78647L117.024 18.7387C116.15 20.8607 115.085 22.3462 113.829 23.195C112.572 24.065 111.039 24.5 109.228 24.5C108.312 24.5 107.386 24.3515 106.448 24.0544C105.532 23.7785 104.787 23.4072 104.212 22.9403L106.321 18.7069C106.661 19.0252 107.066 19.2692 107.535 19.439C108.025 19.63 108.514 19.7255 109.004 19.7255C109.579 19.7255 110.048 19.6088 110.41 19.3753C110.794 19.1419 111.113 18.7706 111.369 18.2613L103.956 0.78647H110.187L114.436 11.3223L118.717 0.78647H124.5Z" fill="#00B956"/>
</svg>
